<svg width="24" height="24" viewBox="0 0 24 24" fill="none" xmlns="http://www.w3.org/2000/svg">
<path d="M11.3764 13.728C11.6291 13.4753 12.0689 13.4765 12.3217 13.728L15.935 17.3413C16.601 18.0064 17.4868 18.3735 18.4282 18.3735H19.1372L14.5786 22.9321C13.1548 24.3559 10.8462 24.3558 9.42233 22.9321L4.85007 18.3598H5.28366C6.22492 18.3597 7.11052 17.9933 7.77682 17.3286L11.3764 13.728ZM8.85104 18.4028C8.5417 18.7121 8.20042 18.976 7.83054 19.1928L10.4966 21.8579C10.897 22.2583 11.4321 22.4789 12.0005 22.4789C12.5688 22.4789 13.103 22.2582 13.5034 21.8579L16.0561 19.3051C15.6193 19.0727 15.2191 18.7758 14.8608 18.4164L11.8491 15.4047L8.85104 18.4028ZM22.9321 9.42231C24.3559 10.8462 24.356 13.1547 22.9321 14.5786L20.1958 17.3149H18.4282C17.7786 17.3149 17.1431 17.0512 16.6841 16.5922L13.0717 12.9789C12.4183 12.3268 11.2797 12.3266 10.6274 12.9799L7.0278 16.5795C6.56892 17.0388 5.93313 17.3021 5.28366 17.3022H3.79147L1.06784 14.5786C-0.355985 13.1547 -0.355909 10.8462 1.06784 9.42231L3.79147 6.6977H5.28366C5.93313 6.69782 6.56892 6.96243 7.0278 7.42133L10.6274 11.0209C10.9644 11.3575 11.4065 11.5267 11.8481 11.5268C12.2911 11.5268 12.7345 11.3582 13.0708 11.0219L16.6841 7.40864C17.1431 6.94922 17.7786 6.68598 18.4282 6.68598H20.1958L22.9321 9.42231ZM18.4282 8.20551C18.179 8.20551 17.935 8.30615 17.7592 8.48188L14.2426 12.0004L17.7592 15.518C17.9351 15.6946 18.179 15.7954 18.4282 15.7954H19.5669L21.8579 13.5043C22.2595 13.1028 22.4799 12.5691 22.4799 12.0004C22.4799 11.432 22.2595 10.898 21.8579 10.4965L19.5669 8.20551H18.4282ZM2.14206 10.4965C1.3133 11.3258 1.31372 12.675 2.14206 13.5043L4.42136 15.7817H5.28366C5.53272 15.7816 5.77595 15.6808 5.95163 15.5043L9.45651 12.0004L5.95261 8.49653C5.77576 8.31963 5.53273 8.21833 5.28366 8.21821H4.42136L2.14206 10.4965ZM9.42233 1.06782C10.8462 -0.355848 13.1548 -0.356029 14.5786 1.06782L19.1372 5.62739H18.4282C17.4868 5.62739 16.601 5.9943 15.935 6.65961L12.3217 10.2729C12.0612 10.533 11.6368 10.5339 11.3764 10.2729L7.77682 6.67231C7.11052 6.0067 6.22492 5.6402 5.28366 5.64008H4.85007L9.42233 1.06782ZM13.5034 2.14301C12.6761 1.31369 11.3263 1.31489 10.4966 2.14301L7.83054 4.80805C8.20001 5.02402 8.54171 5.2876 8.85104 5.59614L11.8491 8.59614L14.8608 5.58442C15.2191 5.22545 15.6194 4.92813 16.0561 4.69574L13.5034 2.14301Z" fill="black" fill-opacity="0.96"/>
</svg>
