<svg width="24" height="24" viewBox="0 0 24 24" fill="none" xmlns="http://www.w3.org/2000/svg">
<path d="M19.7752 11.891C19.9221 11.2847 20 10.6515 20 10C20 5.58172 16.4183 2 12 2C7.58172 2 4 5.58172 4 10C4 11.0167 4.18965 11.989 4.53549 12.8837C4.16479 13.1392 3.82666 13.4462 3.53239 13.7993L3.15889 14.2475C2.41008 15.1461 2 16.2787 2 17.4484V22.0002H14.8431C16.1692 22.0002 17.441 21.4734 18.3787 20.5358L21.7071 17.2073C22.9261 15.9884 22.9261 14.0121 21.7071 12.7931C21.1677 12.2537 20.48 11.953 19.7752 11.891ZM6.37788 12.1003C6.13357 11.4466 6 10.7389 6 10C6 6.68629 8.68629 4 12 4C15.3137 4 18 6.68629 18 10C18 10.9933 17.7586 11.9302 17.3313 12.7553C17.3184 12.7678 17.3056 12.7804 17.2929 12.7931L15.8908 14.1952C15.7711 13.7644 15.5576 13.3727 15.2739 13.0432C15.4819 12.7655 15.6317 12.4393 15.7034 12.0807C15.9652 10.7717 15.1028 9.50234 13.7894 9.26354L11.0679 8.76872C10.8547 8.72997 10.7148 8.52395 10.7573 8.31149C10.7935 8.13037 10.9525 8 11.1372 8H15V6H13V5H11V6.00391C9.92116 6.06547 9.01027 6.84841 8.7961 7.91926C8.53429 9.2283 9.39671 10.4977 10.7101 10.7365L13.4316 11.2313C13.6448 11.27 13.7847 11.4761 13.7423 11.6885C13.706 11.8696 13.547 12 13.3623 12L7.3735 12.0002C7.03618 12.0002 6.70281 12.0343 6.37788 12.1003ZM18.7071 14.2073C19.145 13.7694 19.855 13.7694 20.2929 14.2073C20.7308 14.6452 20.7308 15.3552 20.2929 15.7931L16.9645 19.1215C16.4019 19.6842 15.6388 20.0002 14.8431 20.0002H4V17.4484C4 16.7466 4.24605 16.067 4.69534 15.5279L5.06884 15.0797C5.63882 14.3957 6.48316 14.0002 7.3735 14.0002H13C13.5523 14.0002 14 14.4479 14 15.0002C14 15.4789 13.6637 15.879 13.2145 15.9772C13.092 15.9924 12.968 16.0002 12.8431 16.0002H7.5V18.0002H13C13.187 18.0002 13.3699 17.9831 13.5474 17.9504C14.6132 17.7988 15.6086 17.3058 16.3787 16.5358L18.7071 14.2073Z" fill="black" fill-opacity="0.96"/>
</svg>
