<svg width="32" height="32" viewBox="0 0 32 32" fill="none" xmlns="http://www.w3.org/2000/svg">
<path d="M16 32C24.8366 32 32 24.8366 32 16C32 7.16344 24.8366 0 16 0C7.16344 0 0 7.16344 0 16C0 24.8366 7.16344 32 16 32Z" fill="#AA68FF"/>
<mask id="mask0_4654_45969" style="mask-type:alpha" maskUnits="userSpaceOnUse" x="0" y="0" width="32" height="32">
<path d="M16 32C24.8366 32 32 24.8366 32 16C32 7.16344 24.8366 0 16 0C7.16344 0 0 7.16344 0 16C0 24.8366 7.16344 32 16 32Z" fill="url(#paint0_linear_4654_45969)"/>
</mask>
<g mask="url(#mask0_4654_45969)">
<path d="M16 32C24.8366 32 32 24.8366 32 16C32 7.16344 24.8366 0 16 0C7.16344 0 0 7.16344 0 16C0 24.8366 7.16344 32 16 32Z" fill="#CEBAF4"/>
</g>
<path d="M15.9999 26.9091C22.0248 26.9091 26.909 22.0249 26.909 16C26.909 9.97505 22.0248 5.09088 15.9999 5.09088C9.97499 5.09088 5.09082 9.97505 5.09082 16C5.09082 22.0249 9.97499 26.9091 15.9999 26.9091Z" fill="#AA68FF"/>
<mask id="mask1_4654_45969" style="mask-type:alpha" maskUnits="userSpaceOnUse" x="5" y="5" width="22" height="22">
<path d="M15.9999 26.9091C22.0248 26.9091 26.909 22.0249 26.909 16C26.909 9.97505 22.0248 5.09088 15.9999 5.09088C9.97499 5.09088 5.09082 9.97505 5.09082 16C5.09082 22.0249 9.97499 26.9091 15.9999 26.9091Z" fill="url(#paint1_linear_4654_45969)"/>
</mask>
<g mask="url(#mask1_4654_45969)">
<path d="M15.9999 26.9091C22.0248 26.9091 26.909 22.0249 26.909 16C26.909 9.97505 22.0248 5.09088 15.9999 5.09088C9.97499 5.09088 5.09082 9.97505 5.09082 16C5.09082 22.0249 9.97499 26.9091 15.9999 26.9091Z" fill="#CEBAF4"/>
</g>
<path d="M15.4848 9.78837C17.623 9.72727 18.9903 11.0247 19.3714 12.7527L17.3379 13.2007C17.0674 12.1389 16.0667 11.5425 14.7779 11.8276C13.5736 12.0924 12.9045 12.8429 13.0994 13.7273C13.6434 16.2029 19.8194 13.0116 20.8318 17.6051C21.2303 19.4175 20.1132 21.1222 18.1408 21.8582L18.5627 23.7753L16.7474 24.1738L16.3139 22.2073C14.231 22.2742 12.5059 21.0553 12.0667 19.0538L14.0332 18.6204C14.3125 19.8916 15.5198 20.5316 16.9452 20.2175C18.2834 19.9236 19.0834 19.0364 18.8652 18.0356C18.2805 15.3738 12.1132 18.5273 11.1532 14.1695C10.7721 12.4415 11.8107 10.8618 13.6638 10.152L13.2419 8.23491L15.0572 7.83636L15.4878 9.78546L15.4848 9.78837Z" fill="#AA68FF"/>
<defs>
<linearGradient id="paint0_linear_4654_45969" x1="30.6446" y1="12.9652" x2="0.99587" y2="19.1106" gradientUnits="userSpaceOnUse">
<stop/>
<stop offset="1" stop-opacity="0"/>
</linearGradient>
<linearGradient id="paint1_linear_4654_45969" x1="6.01006" y1="18.0983" x2="26.2243" y2="13.9094" gradientUnits="userSpaceOnUse">
<stop/>
<stop offset="1" stop-opacity="0"/>
</linearGradient>
</defs>
</svg>
